<?xml version="1.0" encoding="UTF-8"?>
<svg width="20px" height="20px" viewBox="0 0 20 20" version="1.1" xmlns="http://www.w3.org/2000/svg" xmlns:xlink="http://www.w3.org/1999/xlink">
    <!-- Generator: Sketch 64 (93537) - https://sketch.com -->
    <title>circle-login</title>
    <desc>Created with Sketch.</desc>
    <g id="Page-1" stroke="none" stroke-width="1" fill="none" fill-rule="evenodd">
        <g id="Regular-Screen-" transform="translate(-108.000000, -735.000000)" fill="#000000" fill-rule="nonzero">
            <g id="circle-login" transform="translate(108.000000, 735.000000)">
                <path d="M9.47,11 C9.05803794,10.9946142 8.72538581,10.6619621 8.72,10.25 C8.72,9.83578644 9.05578644,9.5 9.47,9.5 L17.73,9.5 L17.73,9.5 C18.1403395,9.49996352 18.4745288,9.82969694 18.48,10.24 C18.48,10.655862 18.145826,10.9945281 17.73,11 L9.48,11 L9.47,11 Z" id="Path"></path>
                <path d="M15,14.84 C14.8002477,14.8445078 14.6078414,14.764641 14.47,14.62 C14.1775466,14.3271825 14.1775466,13.8528175 14.47,13.56 L17.83,10.2 L14.44,6.84 C14.2970522,6.70071221 14.2164301,6.50958747 14.2164301,6.31 C14.2164301,6.11041253 14.2970522,5.91928779 14.44,5.78 C14.7328175,5.48754662 15.2071825,5.48754662 15.5,5.78 L19.4,9.66 C19.6924534,9.95281755 19.6924534,10.4271825 19.4,10.72 L15.52,14.62 C15.3825555,14.7591772 15.1955973,14.8382749 15,14.84 L15,14.84 Z" id="Path"></path>
                <path d="M9.59,19.21 C7.66792626,19.2081064 5.79428495,18.6068633 4.23,17.49 C0.0933872238,14.5159466 -0.849053378,8.75161278 2.125,4.615 C5.09905338,0.478387224 10.8633872,-0.464053378 15,2.51 C15.3076615,2.74866482 15.3815113,3.1830758 15.17,3.51 C14.9340381,3.82214174 14.4958537,3.89663309 14.17,3.68 C11.0427614,1.44158388 6.74417373,1.8500204 4.09446285,4.6373417 C1.44475197,7.424663 1.25429224,11.7384087 3.64804087,14.7484079 C6.0417895,17.7584071 10.2876544,18.5440968 13.6,16.59 C13.8312019,16.4341321 14.1297889,16.4193943 14.3752163,16.5517366 C14.6206438,16.6840789 14.7723922,16.9416519 14.7691981,17.2204688 C14.766004,17.4992858 14.6083948,17.7533148 14.36,17.88 C12.9206247,18.7490722 11.2713942,19.2089205 9.59,19.21 Z" id="Path"></path>
            </g>
        </g>
    </g>
</svg>